<svg width="69" height="42" viewBox="0 0 69 42" fill="none" xmlns="http://www.w3.org/2000/svg">
<path d="M39.7246 9.0799H26.1047C25.8037 9.0799 25.515 9.19947 25.3022 9.41233C25.0893 9.62518 24.9697 9.91387 24.9697 10.2149V29.5097C24.9697 29.8107 25.0893 30.0994 25.3022 30.3122C25.515 30.5251 25.8037 30.6447 26.1047 30.6447H39.7246C40.0256 30.6447 40.3143 30.5251 40.5271 30.3122C40.74 30.0994 40.8596 29.8107 40.8596 29.5097V10.2149C40.8596 9.91387 40.74 9.62518 40.5271 9.41233C40.3143 9.19947 40.0256 9.0799 39.7246 9.0799ZM27.2397 11.3499H31.7797V13.6198H30.6447C30.3436 13.6198 30.055 13.7394 29.8421 13.9523C29.6293 14.1651 29.5097 14.4538 29.5097 14.7548C29.5097 15.0559 29.6293 15.3445 29.8421 15.5574C30.055 15.7702 30.3436 15.8898 30.6447 15.8898H31.7797V23.8347H30.6447C30.3436 23.8347 30.055 23.9543 29.8421 24.1672C29.6293 24.38 29.5097 24.6687 29.5097 24.9697C29.5097 25.2707 29.6293 25.5594 29.8421 25.7723C30.055 25.9851 30.3436 26.1047 30.6447 26.1047H31.7797V28.3747H27.2397V11.3499ZM38.5896 28.3747H34.0496V26.1047H35.1846C35.4856 26.1047 35.7743 25.9851 35.9872 25.7723C36.2 25.5594 36.3196 25.2707 36.3196 24.9697C36.3196 24.6687 36.2 24.38 35.9872 24.1672C35.7743 23.9543 35.4856 23.8347 35.1846 23.8347H34.0496V15.8898H35.1846C35.4856 15.8898 35.7743 15.7702 35.9872 15.5574C36.2 15.3445 36.3196 15.0559 36.3196 14.7548C36.3196 14.4538 36.2 14.1651 35.9872 13.9523C35.7743 13.7394 35.4856 13.6198 35.1846 13.6198H34.0496V11.3499H38.5896V28.3747Z" fill="white"></path>
<path d="M64.6943 0H3.40496C1.52457 0 0 1.52457 0 3.40496V34.0496C0 34.3506 0.119579 34.6393 0.33243 34.8522C0.545282 35.065 0.83397 35.1846 1.13499 35.1846H4.0363C3.62765 35.8716 3.4097 36.6552 3.40496 37.4546C3.3956 39.5333 4.80313 41.3504 6.8183 41.861C8.83276 42.3714 10.9365 41.4437 11.9174 39.6109C13.1399 41.7873 15.8948 42.5609 18.0711 41.3384C20.2475 40.1164 21.0211 37.361 19.7986 35.1846H48.3007C47.8921 35.8716 47.6742 36.6553 47.6695 37.4546C47.6601 39.5333 49.0676 41.3504 51.0828 41.861C53.0973 42.3714 55.201 41.4437 56.1819 39.6109C57.4044 41.7873 60.1593 42.5609 62.3356 41.3384C64.512 40.1164 65.2856 37.361 64.0631 35.1846H66.9643C67.2653 35.1846 67.554 35.065 67.7668 34.8522C67.9797 34.6393 68.0993 34.3506 68.0993 34.0496V3.40496C68.0993 1.52457 66.5747 0 64.6943 0ZM13.6199 6.80993V32.9146H9.0799V6.80993H13.6199ZM11.9812 35.1846C11.9585 35.2234 11.9389 35.2626 11.9174 35.2981C11.8958 35.2584 11.8762 35.2184 11.8535 35.1846H11.9812ZM15.8898 6.80993H20.4298V32.9146H15.8898V6.80993ZM22.6998 6.80993H43.1295V32.9146H22.6998V6.80993ZM45.3995 6.80993H49.9395V32.9146H45.3995V6.80993ZM56.1819 35.2981C56.1603 35.2584 56.1407 35.2184 56.118 35.1846H56.2457C56.223 35.2234 56.2035 35.2626 56.1819 35.2981ZM52.2094 32.9146V6.80993H56.7494V32.9146H52.2094ZM65.8293 6.80993V9.0799H59.0194V6.80993H65.8293ZM59.0194 20.4298H65.8293V22.6998H59.0194V20.4298ZM59.0194 18.1598V15.8898H65.8293V18.1598H59.0194ZM59.0194 13.6199V11.3499H65.8293V13.6199H59.0194ZM59.0194 24.9697H65.8293V27.2397H59.0194V24.9697ZM2.26998 3.40496C2.26998 3.10395 2.38955 2.81526 2.60241 2.60241C2.81526 2.38955 3.10395 2.26998 3.40496 2.26998H64.6943C64.9953 2.26998 65.284 2.38955 65.4969 2.60241C65.7097 2.81526 65.8293 3.10395 65.8293 3.40496V4.53995H2.26998V3.40496ZM2.26998 6.80993H6.80993V32.9146H2.26998V6.80993ZM7.94491 39.7246C7.4106 39.7273 6.89246 39.5414 6.48171 39.1997C6.07095 38.8579 5.79391 38.3823 5.69934 37.8564C5.6048 37.3304 5.6988 36.788 5.96479 36.3245C6.23079 35.861 6.65173 35.5062 7.15354 35.3225C7.65541 35.1391 8.20588 35.1385 8.70813 35.3209C9.21038 35.5033 9.63224 35.8569 9.8995 36.3196H7.94491C7.6439 36.3196 7.35521 36.4392 7.14236 36.652C6.9295 36.8649 6.80993 37.1536 6.80993 37.4546C6.80993 37.7556 6.9295 38.0443 7.14236 38.2572C7.35521 38.47 7.6439 38.5896 7.94491 38.5896H9.8995C9.70184 38.9336 9.4172 39.2195 9.07413 39.4187C8.73106 39.6179 8.34163 39.7234 7.94491 39.7246ZM18.1598 37.4546C18.1626 38.4803 17.4748 39.3798 16.4838 39.6458C15.4929 39.9118 14.4473 39.4784 13.9352 38.5896H15.8898C16.1908 38.5896 16.4795 38.47 16.6924 38.2572C16.9052 38.0443 17.0248 37.7556 17.0248 37.4546C17.0248 37.1536 16.9052 36.8649 16.6924 36.652C16.4795 36.4392 16.1908 36.3196 15.8898 36.3196H13.9352C14.4473 35.4306 15.493 34.9973 16.484 35.2634C17.475 35.5294 18.1626 36.4288 18.1598 37.4546ZM52.2094 39.7246C51.6751 39.7273 51.157 39.5414 50.7462 39.1997C50.3355 38.8579 50.0584 38.3823 49.9639 37.8564C49.8693 37.3304 49.9633 36.788 50.2293 36.3245C50.4953 35.861 50.9162 35.5062 51.4181 35.3225C51.9199 35.1391 52.4704 35.1385 52.9726 35.3209C53.4749 35.5033 53.8968 35.8569 54.164 36.3196H52.2094C51.9084 36.3196 51.6197 36.4392 51.4069 36.652C51.194 36.8649 51.0744 37.1536 51.0744 37.4546C51.0744 37.7556 51.194 38.0443 51.4069 38.2572C51.6197 38.47 51.9084 38.5896 52.2094 38.5896H54.164C53.9664 38.9336 53.6817 39.2195 53.3386 39.4187C52.9956 39.6179 52.6061 39.7234 52.2094 39.7246ZM62.4243 37.4546C62.4272 38.4803 61.7394 39.3798 60.7484 39.6458C59.7574 39.9118 58.7118 39.4784 58.1998 38.5896H60.1543C60.4554 38.5896 60.744 38.47 60.9569 38.2572C61.1698 38.0443 61.2893 37.7556 61.2893 37.4546C61.2893 37.1536 61.1698 36.8649 60.9569 36.652C60.744 36.4392 60.4554 36.3196 60.1543 36.3196H58.1998C58.7118 35.4306 59.7575 34.9973 60.7485 35.2634C61.7395 35.5294 62.4272 36.4288 62.4243 37.4546ZM59.0194 32.9146V29.5097H65.8293V32.9146H59.0194Z" fill="white"></path>
</svg>