<svg xmlns="http://www.w3.org/2000/svg" height="42px" viewBox="-32 0 400 400" width="42px"><path d="m144 40h-72c-8.832031.007812-15.992188 7.167969-16 16v16c.007812 8.832031 7.167969 15.992188 16 16h72c8.832031-.007812 15.992188-7.167969 16-16v-16c-.007812-8.832031-7.167969-15.992188-16-16zm-72 32v-16h72l.011719 16zm0 0"></path><path d="m264 40h-72c-8.832031.007812-15.992188 7.167969-16 16v16c.007812 8.832031 7.167969 15.992188 16 16h72c8.832031-.007812 15.992188-7.167969 16-16v-16c-.007812-8.832031-7.167969-15.992188-16-16zm-72 32v-16h72l.011719 16zm0 0"></path><path d="m328 40h-24v-16c0-3.570312-2.367188-6.710938-5.800781-7.691406l-56-16c-.714844-.203125-1.457031-.308594-2.199219-.308594h-144c-.742188 0-1.484375.105469-2.199219.308594l-56 16c-3.433593.980468-5.800781 4.121094-5.800781 7.691406v16h-24c-4.417969 0-8 3.582031-8 8v64c0 4.417969 3.582031 8 8 8h24v10.886719l-9.558594 1.898437c-3.746094.746094-6.441406 4.03125-6.441406 7.847656v155.367188c0 4.078125 3.066406 7.5 7.117188 7.949219l36.066406 4.007812-2.78125 12.042969h-24.402344c-3.671875 0-6.871094 2.496094-7.761719 6.058594l-8 32c-.597656 2.390625-.058593 4.921875 1.457031 6.863281 1.515626 1.941406 3.839844 3.078125 6.304688 3.078125h21.324219l-5.121094 22.199219c-.546875 2.375.015625 4.871093 1.535156 6.78125 1.519531 1.90625 3.824219 3.019531 6.261719 3.019531h32c3.726562 0 6.957031-2.570312 7.796875-6.199219l5.953125-25.800781h148.5l5.953125 25.800781c.839844 3.628907 4.070313 6.199219 7.796875 6.199219h32c2.4375 0 4.742188-1.113281 6.261719-3.019531 1.519531-1.910157 2.082031-4.40625 1.535156-6.78125l-5.121094-22.199219h21.324219c2.464844 0 4.789062-1.136719 6.304688-3.078125 1.515624-1.941406 2.054687-4.472656 1.457031-6.863281l-8-32c-.890625-3.5625-4.089844-6.058594-7.761719-6.058594h-24.402344l-2.78125-12.042969 36.066406-4.007812c4.050782-.449219 7.117188-3.871094 7.117188-7.949219v-155.367188c0-3.816406-2.695312-7.101562-6.441406-7.847656l-9.558594-1.898437v-10.886719h24c4.417969 0 8-3.582031 8-8v-64c0-4.417969-3.582031-8-8-8zm-312 64v-48h16v48zm152 16.15625 136 27.042969v66.046875l-64-19.199219v-26.046875c-.015625-13.25-10.75-23.984375-24-24h-96c-13.25.015625-23.984375 10.75-24 24v26.046875l-64 19.199219v-66.046875zm-136 109.796875 74.296875-22.289063c3.382813-1.015624 5.703125-4.128906 5.703125-7.664062v-16h112v16c0 3.535156 2.320312 6.648438 5.703125 7.664062l74.296875 22.289063v8.074219l-134.265625-29.835938c-1.140625-.253906-2.328125-.253906-3.46875 0l-134.265625 29.835938zm80-61.953125c.003906-4.414062 3.585938-7.996094 8-8h96c4.414062.003906 7.996094 3.585938 8 8zm-77.753906 184 4-16h14.464844l-3.691407 16zm23.808594 32 17.140624-74.265625 15.1875 1.6875-16.746093 72.578125zm171.550781-70.796875 1.566406 6.796875h-126.34375l1.566406-6.796875 60.722657 6.746094c.585937.066406 1.179687.066406 1.765624 0zm-132.164063 38.796875 3.695313-16h133.726562l3.695313 16zm200.3125-16 4 16h-14.773437l-3.691407-16zm-19.808594 48h-15.582031l-16.746093-72.578125 15.1875-1.6875zm-109.945312-80.050781-136-15.109375v-34.421875l136-30.222657 136 30.222657v34.421875zm1.558594-199.796875c-1.027344-.203125-2.089844-.203125-3.117188 0l-118.441406 23.550781v-97.667969l49.121094-14.035156h141.757812l49.121094 14.035156v97.667969zm150.441406-.152344h-16v-48h16zm0 0"></path><path d="m168 232c-4.417969 0-8 3.582031-8 8v48c0 4.417969 3.582031 8 8 8s8-3.582031 8-8v-48c0-4.417969-3.582031-8-8-8zm0 0"></path><path d="m137.941406 240.238281c-4.285156-1.066406-8.628906 1.535157-9.703125 5.820313l-8 32c-1.070312 4.285156 1.535157 8.628906 5.820313 9.703125 4.285156 1.070312 8.628906-1.535157 9.703125-5.820313l8-32c1.070312-4.285156-1.535157-8.628906-5.820313-9.703125zm0 0"></path><path d="m207.761719 246.058594c-1.074219-4.285156-5.417969-6.890625-9.703125-5.820313-4.285156 1.074219-6.890625 5.417969-5.820313 9.703125l8 32c1.074219 4.285156 5.417969 6.890625 9.703125 5.820313 4.285156-1.074219 6.890625-5.417969 5.820313-9.703125zm0 0"></path><path d="m64 200c13.253906 0 24-10.746094 24-24s-10.746094-24-24-24-24 10.746094-24 24c.015625 13.25 10.75 23.984375 24 24zm0-32c4.417969 0 8 3.582031 8 8s-3.582031 8-8 8-8-3.582031-8-8c.003906-4.414062 3.585938-7.996094 8-8zm0 0"></path><path d="m272 200c13.253906 0 24-10.746094 24-24s-10.746094-24-24-24-24 10.746094-24 24c.015625 13.25 10.75 23.984375 24 24zm0-32c4.417969 0 8 3.582031 8 8s-3.582031 8-8 8-8-3.582031-8-8c.003906-4.414062 3.585938-7.996094 8-8zm0 0"></path></svg>