<svg xmlns="http://www.w3.org/2000/svg" xmlns:xlink="http://www.w3.org/1999/xlink" version="1.1" id="Capa_1" x="0px" y="0px" viewBox="0 0 511.999 511.999" style="enable-background:new 0 0 511.999 511.999;width: 42px;height: 42px;" xml:space="preserve">
<g>
	<g>
		<path d="M444.522,312H67.476c-6.604,0-11.977,5.373-11.977,11.977v127.047c0,6.604,5.373,11.977,11.977,11.977h305.523    c4.143,0,7.5-3.357,7.5-7.5s-3.357-7.5-7.5-7.5h-302.5V327h371v121h-38.5c-4.143,0-7.5,3.357-7.5,7.5s3.357,7.5,7.5,7.5h41.523    c6.604,0,11.977-5.373,11.977-11.977V323.977C456.499,317.373,451.126,312,444.522,312z"></path>
	</g>
</g>
<g>
	<g>
		<path d="M481.499,477.553V297.447c4.274-3.58,7-8.949,7-14.947c0-10.752-8.748-19.5-19.5-19.5h-5.604    c0.065-0.603,0.104-110.167,0.104-110.167c0-9.281-7.552-16.833-16.833-16.833h-83.167V46.964c5.575-0.371,10-5.012,10-10.679    V17.102c0-9.43-7.672-17.102-17.102-17.102H155.601c-9.43,0-17.102,7.672-17.102,17.102v19.184c0,5.667,4.425,10.308,10,10.679    V136H65.332c-9.281,0-16.833,7.552-16.833,16.833c0,0,0.039,109.564,0.105,110.167h-5.605c-10.752,0-19.5,8.748-19.5,19.5    c0,5.998,2.726,11.367,7,14.947v180.105c-4.274,3.58-7,8.949-7,14.947c0,10.752,8.748,19.5,19.5,19.5h426    c10.752,0,19.5-8.748,19.5-19.5C488.499,486.502,485.773,481.133,481.499,477.553z M446.666,151c1.011,0,1.833,0.822,1.833,1.833    v108.334c0,1.011-0.822,1.833-1.833,1.833H265.332c-1.011,0-1.833-0.822-1.833-1.833V152.833c0-1.011,0.822-1.833,1.833-1.833    H446.666z M155.601,15h200.797c1.159,0,2.102,0.942,2.102,2.102V32h-205V17.102h-0.001C153.499,15.943,154.441,15,155.601,15z     M63.499,152.833c0-1.011,0.822-1.833,1.833-1.833h117.79c4.143,0,7.5-3.357,7.5-7.5s-3.357-7.5-7.5-7.5h-19.623V47h185v89    H213.122c-4.143,0-7.5,3.357-7.5,7.5s3.357,7.5,7.5,7.5h33.544c1.011,0,1.833,0.822,1.833,1.833v108.334    c0,1.011-0.822,1.833-1.833,1.833H65.332c-1.011,0-1.833-0.822-1.833-1.833V152.833z M468.999,497h-426    c-2.481,0-4.5-2.019-4.5-4.5c0-2.481,2.019-4.5,4.5-4.5h426c2.481,0,4.5,2.019,4.5,4.5C473.499,494.981,471.48,497,468.999,497z     M45.499,473V302h421v171H45.499z M468.999,287h-426c-2.481,0-4.5-2.019-4.5-4.5c0-2.481,2.019-4.5,4.5-4.5h426    c2.481,0,4.5,2.019,4.5,4.5C473.499,284.981,471.48,287,468.999,287z"></path>
	</g>
</g>
<g>
	<g>
		<path d="M230.999,161h-150c-4.143,0-7.5,3.357-7.5,7.5v77c0,4.143,3.357,7.5,7.5,7.5h150c4.143,0,7.5-3.357,7.5-7.5v-77    C238.499,164.357,235.142,161,230.999,161z M199.966,176l-43.967,22.57L112.031,176H199.966z M88.499,180.78L139.577,207    l-51.078,26.22V180.78z M112.033,238l43.967-22.57L199.967,238H112.033z M223.499,233.22L172.421,207l51.078-26.22V233.22z"></path>
	</g>
</g>
<g>
	<g>
		<path d="M430.999,161h-150c-4.143,0-7.5,3.357-7.5,7.5v77c0,4.143,3.357,7.5,7.5,7.5h150c4.143,0,7.5-3.357,7.5-7.5v-77    C438.499,164.357,435.142,161,430.999,161z M399.967,176l-43.967,22.57L312.032,176H399.967z M288.499,180.78L339.577,207    l-51.078,26.22V180.78z M312.033,238l43.967-22.57L399.967,238H312.033z M423.499,233.22L372.421,207l51.078-26.22V233.22z"></path>
	</g>
</g>
<g>
	<g>
		<path d="M313.212,78H198.786c-7.326,0-13.287,5.961-13.287,13.287v18.426c0,7.326,5.961,13.287,13.287,13.287h114.426    c7.326,0,13.287-5.961,13.287-13.287V91.287C326.499,83.961,320.538,78,313.212,78z M311.499,108h-111V93h111V108z"></path>
	</g>
</g>
<g>
	<g>
		<path d="M255.999,347.5c-4.143,0-7.5,3.357-7.5,7.5v68c0,4.143,3.357,7.5,7.5,7.5s7.5-3.357,7.5-7.5v-68    C263.499,350.857,260.142,347.5,255.999,347.5z"></path>
	</g>
</g>
<g>
	<g>
		<path d="M288.999,347.5c-4.143,0-7.5,3.357-7.5,7.5v68c0,4.143,3.357,7.5,7.5,7.5s7.5-3.357,7.5-7.5v-68    C296.499,350.857,293.142,347.5,288.999,347.5z"></path>
	</g>
</g>
<g>
	<g>
		<path d="M321.999,347.5c-4.143,0-7.5,3.357-7.5,7.5v68c0,4.143,3.357,7.5,7.5,7.5s7.5-3.357,7.5-7.5v-68    C329.499,350.857,326.142,347.5,321.999,347.5z"></path>
	</g>
</g>
<g>
	<g>
		<path d="M354.999,347.5c-4.143,0-7.5,3.357-7.5,7.5v68c0,4.143,3.357,7.5,7.5,7.5s7.5-3.357,7.5-7.5v-68    C362.499,350.857,359.142,347.5,354.999,347.5z"></path>
	</g>
</g>
<g>
	<g>
		<path d="M387.999,347.5c-4.143,0-7.5,3.357-7.5,7.5v68c0,4.143,3.357,7.5,7.5,7.5s7.5-3.357,7.5-7.5v-68    C395.499,350.857,392.142,347.5,387.999,347.5z"></path>
	</g>
</g>
<g>
	<g>
		<path d="M420.999,347.5c-4.143,0-7.5,3.357-7.5,7.5v68c0,4.143,3.357,7.5,7.5,7.5s7.5-3.357,7.5-7.5v-68    C428.499,350.857,425.142,347.5,420.999,347.5z"></path>
	</g>
</g>
<g>
	<g>
		<path d="M222.999,347.5c-4.143,0-7.5,3.357-7.5,7.5v68c0,4.143,3.357,7.5,7.5,7.5s7.5-3.357,7.5-7.5v-68    C230.499,350.857,227.142,347.5,222.999,347.5z"></path>
	</g>
</g>
<g>
	<g>
		<path d="M189.999,347.5c-4.143,0-7.5,3.357-7.5,7.5v68c0,4.143,3.357,7.5,7.5,7.5s7.5-3.357,7.5-7.5v-68    C197.499,350.857,194.142,347.5,189.999,347.5z"></path>
	</g>
</g>
<g>
	<g>
		<path d="M156.999,347.5c-4.143,0-7.5,3.357-7.5,7.5v68c0,4.143,3.357,7.5,7.5,7.5s7.5-3.357,7.5-7.5v-68    C164.499,350.857,161.142,347.5,156.999,347.5z"></path>
	</g>
</g>
<g>
	<g>
		<path d="M123.999,347.5c-4.143,0-7.5,3.357-7.5,7.5v68c0,4.143,3.357,7.5,7.5,7.5s7.5-3.357,7.5-7.5v-68    C131.499,350.857,128.142,347.5,123.999,347.5z"></path>
	</g>
</g>
<g>
	<g>
		<path d="M90.999,347.5c-4.143,0-7.5,3.357-7.5,7.5v68c0,4.143,3.357,7.5,7.5,7.5s7.5-3.357,7.5-7.5v-68    C98.499,350.857,95.142,347.5,90.999,347.5z"></path>
	</g>
</g>
<g>
</g>
<g>
</g>
<g>
</g>
<g>
</g>
<g>
</g>
<g>
</g>
<g>
</g>
<g>
</g>
<g>
</g>
<g>
</g>
<g>
</g>
<g>
</g>
<g>
</g>
<g>
</g>
<g>
</g>
</svg>